name rise30.6535peak61.5555fall82.9339.mot
datacolumns 19
datarows 14
range 2.60666600000000 2.62831800000000
endheader
time	ground_force1_vx	ground_force1_vy	ground_force1_vz	ground_force1_px	ground_force1_py	ground_force1_pz	ground_force2_vx	ground_force2_vy	ground_force2_vz	ground_force2_px	ground_force2_py	ground_force2_pz	ground_torque1_x	ground_torque1_y	ground_torque1_z	ground_torque2_x	ground_torque2_y	ground_torque2_z	
2.60666600000000	-52.41165900000000	821.21149500000001	62.12311700000000	0.07968700000000	0.00000000000000	0.12626100000000	-4.03195800000000	20.48286100000000	5.13151100000000	0.00000000000000	0.00000000000000	0.00000000000000	0.00000000000000	21.72253200000000	0.00000000000000	0.00000000000000	1.77753700000000	0.00000000000000	
2.60832300000000	-52.79601700000000	819.65908000000002	62.07154000000000	0.07913100000000	0.00000000000000	0.12623200000000	-4.88511400000000	25.81490000000000	6.33699900000000	0.30972400000000	0.00000000000000	-0.06149500000000	0.00000000000000	21.68651300000000	0.00000000000000	0.00000000000000	3.85795900000000	0.00000000000000	
2.60998600000000	-53.19503400000000	818.00401899999997	62.00342200000000	0.07858300000000	0.00000000000000	0.12619900000000	-5.71869700000000	31.40349500000000	7.55920600000000	0.31483000000000	0.00000000000000	-0.06150700000000	0.00000000000000	21.65272500000000	0.00000000000000	0.00000000000000	4.64819900000000	0.00000000000000	
2.61166800000000	-53.60932200000000	816.24462000000005	61.91839600000000	0.07804300000000	0.00000000000000	0.12616000000000	-6.50151000000000	37.12147800000000	8.76162700000000	0.31948200000000	0.00000000000000	-0.06155300000000	0.00000000000000	21.62129300000000	0.00000000000000	0.00000000000000	5.43736000000000	0.00000000000000	
2.61331800000000	-54.03943700000000	814.37917100000004	61.81609800000000	0.07751000000000	0.00000000000000	0.12611700000000	-7.20528100000000	42.84769700000000	9.91031600000000	0.32373100000000	0.00000000000000	-0.06162700000000	0.00000000000000	21.59233200000000	0.00000000000000	0.00000000000000	6.20318500000000	0.00000000000000	
2.61499100000000	-54.48588200000000	812.40593699999999	61.69617100000000	0.07698300000000	0.00000000000000	0.12606800000000	-7.80650300000000	48.47593300000000	10.97618700000000	0.32761900000000	0.00000000000000	-0.06172800000000	0.00000000000000	21.56594100000000	0.00000000000000	0.00000000000000	6.92611800000000	0.00000000000000	
2.61666200000000	-54.94909300000000	810.32316400000002	61.55826500000000	0.07646200000000	0.00000000000000	0.12601400000000	-8.28768800000000	53.92155400000000	11.93665000000000	0.33118400000000	0.00000000000000	-0.06185200000000	0.00000000000000	21.54220200000000	0.00000000000000	0.00000000000000	7.59050000000000	0.00000000000000	
2.61831800000000	-55.42944000000000	808.12908100000004	61.40203300000000	0.07594700000000	0.00000000000000	0.12595400000000	-8.63795700000000	59.12546900000000	12.77649800000000	0.33445700000000	0.00000000000000	-0.06199700000000	0.00000000000000	21.52118200000000	0.00000000000000	0.00000000000000	8.18526800000000	0.00000000000000	
2.61998900000000	-55.92722100000000	805.82189900000003	61.22713800000000	0.07543700000000	0.00000000000000	0.12588900000000	-8.85300100000000	64.05536400000000	13.48804300000000	0.33746700000000	0.00000000000000	-0.06216100000000	0.00000000000000	21.50293000000000	0.00000000000000	0.00000000000000	8.70417800000000	0.00000000000000	
2.62165600000000	-56.44265400000000	803.39981399999999	61.03324900000000	0.07493100000000	0.00000000000000	0.12581900000000	-8.93451200000000	68.70455699999999	14.07061600000000	0.34023700000000	0.00000000000000	-0.06234300000000	0.00000000000000	21.48747800000000	0.00000000000000	0.00000000000000	9.14558600000000	0.00000000000000	
2.62331800000000	-56.97588100000000	800.86101299999996	60.82004500000000	0.07442800000000	0.00000000000000	0.12574300000000	-8.88921800000000	73.08891500000000	14.52958200000000	0.34278900000000	0.00000000000000	-0.06254000000000	0.00000000000000	21.47483600000000	0.00000000000000	0.00000000000000	9.51188100000000	0.00000000000000	
2.62498500000000	-57.52695300000000	798.20366999999999	60.58721100000000	0.07392900000000	0.00000000000000	0.12566100000000	-8.72767100000000	77.24246800000000	14.87501400000000	0.34514200000000	0.00000000000000	-0.06275200000000	0.00000000000000	21.46499700000000	0.00000000000000	0.00000000000000	9.80868900000000	0.00000000000000	
2.62665700000000	-58.09583500000000	795.42595700000004	60.33444600000000	0.07343200000000	0.00000000000000	0.12557400000000	-8.46293100000000	81.21227100000000	15.12021700000000	0.34731200000000	0.00000000000000	-0.06297700000000	0.00000000000000	21.45793100000000	0.00000000000000	0.00000000000000	10.04392800000000	0.00000000000000	
2.62831800000000	-58.68239600000000	792.52604199999996	60.06145600000000	0.07293700000000	0.00000000000000	0.12548100000000	-8.10926400000000	85.05310100000000	15.28024500000000	0.34931400000000	0.00000000000000	-0.06321300000000	0.00000000000000	21.45359100000000	0.00000000000000	0.00000000000000	10.22685100000000	0.00000000000000	
